<?xml version="1.0" encoding="UTF-8" standalone="no"?>
<!DOCTYPE svg PUBLIC "-//W3C//DTD SVG 1.1//EN" "http://www.w3.org/Graphics/SVG/1.1/DTD/svg11.dtd">
<svg version="1.1" xmlns="http://www.w3.org/2000/svg" xmlns:xlink="http://www.w3.org/1999/xlink" preserveAspectRatio="xMidYMid meet" viewBox="0 0 3500 3500" width="3500" height="3500"><defs><path d="M3500 3500L0 3500L0 0L3500 0L3500 3500Z" id="c5METkivi"></path><path d="M1750 3447.06L52.95 1750L1750 52.94L3447.06 1750L1750 3447.06Z" id="b4HSCKlfWJ"></path><path d="M1925 1925L1575 1925L1575 1575L1925 1575L1925 1925Z" id="c1bHGMLDer"></path><path d="M2355 2380L2205 2380L2205 2180L2355 2180L2355 2380Z" id="bXdzKCCez"></path><path d="M1295 2380L1145 2380L1145 2180L1295 2180L1295 2380Z" id="aGTDMufxw"></path><path d="M2355 1320L2205 1320L2205 1120L2355 1120L2355 1320Z" id="a1ojYe3JQw"></path><path d="M1295 1320L1145 1320L1145 1120L1295 1120L1295 1320Z" id="d2bM6HSNp3"></path></defs><g><g><g><use xlink:href="#c5METkivi" opacity="1" fill="#000000" fill-opacity="1"></use><g><use xlink:href="#c5METkivi" opacity="1" fill-opacity="0" stroke="#000000" stroke-width="1" stroke-opacity="0"></use></g></g><g><use xlink:href="#b4HSCKlfWJ" opacity="1" fill="#ffffff" fill-opacity="1"></use><g><use xlink:href="#b4HSCKlfWJ" opacity="1" fill-opacity="0" stroke="#000000" stroke-width="1" stroke-opacity="0"></use></g></g><g><use xlink:href="#c1bHGMLDer" opacity="1" fill="#000000" fill-opacity="1"></use><g><use xlink:href="#c1bHGMLDer" opacity="1" fill-opacity="0" stroke="#000000" stroke-width="1" stroke-opacity="0"></use></g></g><g><use xlink:href="#bXdzKCCez" opacity="1" fill="#000000" fill-opacity="1"></use><g><use xlink:href="#bXdzKCCez" opacity="1" fill-opacity="0" stroke="#000000" stroke-width="1" stroke-opacity="0"></use></g></g><g><use xlink:href="#aGTDMufxw" opacity="1" fill="#000000" fill-opacity="1"></use><g><use xlink:href="#aGTDMufxw" opacity="1" fill-opacity="0" stroke="#000000" stroke-width="1" stroke-opacity="0"></use></g></g><g><use xlink:href="#a1ojYe3JQw" opacity="1" fill="#000000" fill-opacity="1"></use><g><use xlink:href="#a1ojYe3JQw" opacity="1" fill-opacity="0" stroke="#000000" stroke-width="1" stroke-opacity="0"></use></g></g><g><use xlink:href="#d2bM6HSNp3" opacity="1" fill="#000000" fill-opacity="1"></use><g><use xlink:href="#d2bM6HSNp3" opacity="1" fill-opacity="0" stroke="#000000" stroke-width="1" stroke-opacity="0"></use></g></g></g></g></svg>